# xmcd
#
# Track frame offsets:
#	150
#	21347
#	43808
#	58936
#	82929
#	105238
#	131574
#	148592
#	162991
#
# Disc length: 2483 seconds
#
# Revision: 1
# Processed by: cddbd v1.4PL0 Copyright (c) Steve Scherf et al.
# Submitted via: audiograbber 1.81.03
#
DISCID=7509b109
DTITLE=Griff Hamlin Band - The Griff Hamlin Band
DYEAR=2002
DGENRE=Blues
TTITLE0=Don't Lie
TTITLE1=Louisiana Holiday
TTITLE2=Coming Home
TTITLE3=Running On
TTITLE4=Morality
TTITLE5=G String Shuffle
TTITLE6=Got To End
TTITLE7=When Evil Comes
TTITLE8=Where Would I Begin
EXTD=
EXTT0=
EXTT1=
EXTT2=
EXTT3=
EXTT4=
EXTT5=
EXTT6=
EXTT7=
EXTT8=
PLAYORDER=
